<svg xmlns="http://www.w3.org/2000/svg" xmlns:xlink="http://www.w3.org/1999/xlink" version="1.1" x="0px" y="0px" viewBox="0 0 100 125" style="enable-background:new 0 0 100 100;" xml:space="preserve"><path d="M40.3,37.4c6.5,0,12.9,0,19.4,0c0,1.3,0,2.6,0,3.9c-0.6,0-1.3,0-1.9,0c0-0.6,0-1.3,0-1.9c-2.3,0-4.5,0-6.8,0  c0,7.1,0,14.2,0,21.3c1,0,1.9,0,2.9,0c0,0.6,0,1.3,0,1.9c-2.6,0-5.2,0-7.7,0c0-0.6,0-1.3,0-1.9c1,0,1.9,0,2.9,0c0-7.1,0-14.2,0-21.3  c-2.3,0-4.5,0-6.8,0c0,0.6,0,1.3,0,1.9c-0.6,0-1.3,0-1.9,0C40.3,39.9,40.3,38.6,40.3,37.4z"/><text x="0" y="115" fill="#000000" font-size="5px" font-weight="bold" font-family="'Helvetica Neue', Helvetica, Arial-Unicode, Arial, Sans-serif">Created by misirlou</text><text x="0" y="120" fill="#000000" font-size="5px" font-weight="bold" font-family="'Helvetica Neue', Helvetica, Arial-Unicode, Arial, Sans-serif">from the Noun Project</text></svg>