<svg xmlns="http://www.w3.org/2000/svg" xmlns:xlink="http://www.w3.org/1999/xlink" version="1.1" x="0px" y="0px" viewBox="0 0 100 125" enable-background="new 0 0 100 100" xml:space="preserve"><path d="M66.75,48.568h-0.973C65.019,40.527,58.235,34.213,50,34.213c-8.236,0-15.02,6.314-15.778,14.355h-0.974  c-2.778,0-5.039,2.261-5.039,5.039v6.178c0,2.779,2.261,5.041,5.039,5.041h2.397c0.829,0,1.5-0.672,1.5-1.5V50.068  c0-7.088,5.767-12.855,12.854-12.855s12.854,5.767,12.854,12.855v13.258c0,0.828,0.672,1.5,1.5,1.5h2.396  c2.779,0,5.041-2.262,5.041-5.041v-6.178C71.791,50.829,69.529,48.568,66.75,48.568z M34.146,61.826h-0.897  c-1.125,0-2.039-0.916-2.039-2.041v-6.178c0-1.124,0.915-2.039,2.039-2.039h0.897V61.826z M68.791,59.785  c0,1.125-0.916,2.041-2.041,2.041h-0.896V51.568h0.896c1.125,0,2.041,0.915,2.041,2.039V59.785z M58.811,56.236h-2.398  c-0.618,0-1.173,0.379-1.397,0.955l-1.336,3.428l-2.61-9.202c-0.182-0.638-0.759-1.081-1.422-1.091  c-0.697-0.007-1.253,0.418-1.452,1.05l-2.31,7.342l-0.994-1.729c-0.268-0.465-0.764-0.752-1.3-0.752h-2.4  c-0.829,0-1.5,0.672-1.5,1.5s0.671,1.5,1.5,1.5h1.533l2.267,3.941c0.297,0.517,0.871,0.807,1.463,0.743  c0.592-0.064,1.089-0.473,1.268-1.041l1.831-5.819l2.461,8.675c0.176,0.62,0.729,1.059,1.372,1.089  c0.024,0.001,0.048,0.002,0.071,0.002c0.616,0,1.173-0.377,1.397-0.955l2.585-6.635h1.373c0.828,0,1.5-0.672,1.5-1.5  S59.639,56.236,58.811,56.236z"/><text x="0" y="115" fill="#000000" font-size="5px" font-weight="bold" font-family="'Helvetica Neue', Helvetica, Arial-Unicode, Arial, Sans-serif">Created by Sergey Demushkin</text><text x="0" y="120" fill="#000000" font-size="5px" font-weight="bold" font-family="'Helvetica Neue', Helvetica, Arial-Unicode, Arial, Sans-serif">from the Noun Project</text></svg>