<svg xmlns="http://www.w3.org/2000/svg" xmlns:xlink="http://www.w3.org/1999/xlink" version="1.1" x="0px" y="0px" viewBox="0 0 100 125" enable-background="new 0 0 100 100" xml:space="preserve"><path d="M16.807,82.729c0.525,0.387,1.149,0.584,1.779,0.584c0.437,0,0.875-0.096,1.284-0.289l13.344-6.321  c0.449-0.212,0.837-0.533,1.132-0.933l30.229-41.068c0.001-0.002,0.003-0.003,0.004-0.004c0.001-0.002,0.002-0.004,0.004-0.006  l7.702-10.464c1.634-2.22,1.157-5.356-1.063-6.99l-8.055-5.929c-0.865-0.636-1.889-0.972-2.961-0.972  c-1.583,0-3.089,0.761-4.028,2.036L18.237,63.915c-0.294,0.399-0.485,0.866-0.554,1.358l-2.068,14.619  C15.46,80.985,15.918,82.074,16.807,82.729z M60.415,16.733l6.443,4.743l-5.335,7.248l-6.443-4.743L60.415,16.733z M23.518,66.862  l28.006-38.049l6.443,4.743L29.961,71.604l-7.625,3.612L23.518,66.862z M81,85H18c-1.657,0-3,1.343-3,3s1.343,3,3,3h63  c1.657,0,3-1.343,3-3S82.657,85,81,85z"/><text x="0" y="115" fill="#000000" font-size="5px" font-weight="bold" font-family="'Helvetica Neue', Helvetica, Arial-Unicode, Arial, Sans-serif">Created by Rodolfo Alvarez</text><text x="0" y="120" fill="#000000" font-size="5px" font-weight="bold" font-family="'Helvetica Neue', Helvetica, Arial-Unicode, Arial, Sans-serif">from the Noun Project</text></svg>